<?xml version="1.0" standalone="no"?>
<!DOCTYPE svg PUBLIC "-//W3C//DTD SVG 20010904//EN"
 "http://www.w3.org/TR/2001/REC-SVG-20010904/DTD/svg10.dtd">
<svg version="1.0" xmlns="http://www.w3.org/2000/svg"
 width="236.000000pt" height="236.000000pt" viewBox="0 0 236.000000 236.000000"
 preserveAspectRatio="xMidYMid meet">

<g transform="translate(0.000000,236.000000) scale(0.100000,-0.100000)"
fill="#000000" stroke="none">
<path d="M0 1180 l0 -1180 1180 0 1180 0 0 1180 0 1180 -1180 0 -1180 0 0
-1180z m1627 1108 c-3 -8 -6 -5 -6 6 -1 11 2 17 5 13 3 -3 4 -12 1 -19z m-919
-6 c-2 -4 22 -43 53 -88 68 -96 209 -231 298 -284 49 -29 61 -41 48 -45 -9 -4
-22 -5 -29 -2 -8 3 -5 6 6 6 20 1 20 1 0 16 -26 20 -33 19 -27 -4 4 -14 -12
-35 -56 -78 -76 -72 -149 -194 -186 -311 -15 -48 -31 -95 -34 -104 -10 -29
-165 389 -196 527 -15 66 -29 123 -31 127 -3 4 17 42 44 85 27 43 59 97 71
121 12 23 26 42 31 42 6 0 9 -3 8 -8z m982 -23 c8 -17 38 -70 68 -118 l54 -86
-27 -115 c-21 -93 -194 -575 -202 -566 -2 1 -13 38 -27 82 -36 121 -61 182
-83 207 -11 12 -29 38 -41 57 -31 53 -112 126 -155 141 -37 13 -37 13 -15 26
30 16 48 16 25 -1 -14 -11 -15 -15 -4 -19 9 -3 18 7 26 30 7 19 15 32 18 29 6
-5 46 29 151 128 66 63 172 203 172 226 0 23 29 8 40 -21z m-512 -416 c-10 -2
-26 -2 -35 0 -10 3 -2 5 17 5 19 0 27 -2 18 -5z m-243 -189 c-20 -33 -28 -49
-18 -36 10 13 28 35 39 50 l22 26 7 -41 c6 -40 4 -45 -67 -142 -40 -56 -81
-116 -90 -133 -9 -18 -24 -87 -33 -153 -8 -66 -19 -136 -23 -155 l-8 -35 -17
56 c-26 87 -97 463 -97 513 0 16 50 -92 91 -196 19 -49 36 -88 39 -88 3 0 15
28 27 63 44 126 55 152 69 160 8 4 14 13 14 20 0 7 -4 6 -10 -3 -16 -24 -11
-2 6 33 20 40 78 126 82 122 2 -1 -13 -29 -33 -61z m399 25 c43 -22 68 -29 90
-25 40 7 59 -5 54 -35 -4 -33 -54 -46 -116 -29 -48 13 -88 15 -155 10 -22 -2
-43 2 -50 10 -10 10 -9 12 6 7 9 -4 17 -2 17 3 0 16 -52 20 -62 5 -11 -14 -10
-25 3 -25 5 0 7 6 3 13 -5 9 -4 9 5 1 14 -13 0 -45 -36 -92 -20 -24 -220 -101
-207 -79 15 24 60 84 137 180 l79 99 87 -7 c67 -5 99 -13 145 -36z m80 14 c19
-23 19 -23 -1 -23 -15 0 -20 7 -20 25 0 14 0 25 1 23 1 -2 10 -13 20 -25z
m272 -264 c-37 -220 -99 -504 -142 -646 -14 -48 -26 -96 -26 -105 1 -10 -3
-18 -8 -18 -5 0 -16 -23 -25 -51 -12 -36 -20 -47 -25 -38 -5 8 -33 108 -63
223 l-55 208 24 35 c38 57 46 105 39 230 -7 106 -9 116 -40 159 -31 43 -32 47
-20 87 12 41 13 42 74 52 65 12 73 11 64 -11 -3 -8 0 -14 7 -14 6 0 8 -5 4
-12 -4 -6 0 -16 8 -22 8 -6 28 -50 44 -99 15 -48 31 -87 34 -87 3 0 25 49 48
108 67 164 87 210 89 208 2 -1 -13 -94 -31 -207z m-373 42 c53 -55 77 -95 77
-124 0 -7 -5 -4 -11 6 -6 10 -27 35 -46 55 -42 43 -80 47 -156 18 -65 -25 -55
-29 19 -8 32 9 73 15 89 13 23 -3 11 -7 -45 -18 -41 -8 -87 -15 -102 -16 -14
-1 -24 -5 -22 -8 2 -3 -10 -6 -26 -6 -17 0 -33 -3 -37 -6 -18 -18 16 -18 120
2 118 23 149 20 176 -13 17 -20 18 -20 -51 -33 -58 -12 -236 -89 -226 -98 3
-3 38 10 79 29 41 19 100 42 131 52 55 17 59 17 77 0 31 -28 45 -96 32 -156
-12 -55 -39 -120 -50 -120 -8 0 -33 102 -26 108 2 2 8 -11 14 -29 8 -30 9 -31
10 -9 1 19 3 22 11 10 5 -8 12 -11 16 -8 11 11 22 88 13 88 -5 0 -9 -15 -10
-32 0 -30 -1 -31 -9 -10 -5 12 -12 22 -15 22 -4 0 -4 -4 -1 -8 2 -4 1 -14 -3
-21 -7 -10 -9 -10 -14 2 -3 9 6 27 23 44 30 28 39 53 19 53 -5 0 -7 5 -3 12 4
7 3 8 -4 4 -7 -4 -12 -14 -12 -22 0 -8 -7 -17 -15 -20 -8 -4 -15 -11 -15 -18
0 -16 -38 -47 -45 -36 -3 5 4 14 16 20 11 7 18 14 15 17 -3 4 -14 -1 -23 -9
-10 -9 -35 -21 -55 -29 -22 -7 -38 -20 -38 -29 0 -9 -3 -11 -8 -5 -8 11 -42
19 -42 10 0 -3 12 -10 26 -15 21 -8 25 -15 22 -35 -3 -13 -1 -22 3 -19 5 3 9
2 9 -1 0 -9 -80 -83 -96 -89 -8 -3 -13 -9 -12 -13 0 -4 -4 -21 -11 -38 -7 -16
-16 -84 -20 -150 -6 -105 -11 -129 -35 -180 -27 -54 -28 -59 -12 -71 14 -9 14
-14 4 -20 -19 -12 -37 -13 -44 -3 -3 5 5 9 18 9 17 0 19 3 9 9 -9 6 -28 -2
-58 -25 -71 -54 -121 -41 -181 44 -18 25 -32 42 -32 36 0 -6 7 -19 15 -30 8
-10 14 -26 14 -34 0 -8 -9 2 -20 23 -11 21 -17 42 -14 48 4 5 1 16 -5 24 -9
11 -9 27 -2 62 6 27 14 71 17 98 4 28 20 119 36 203 17 85 34 193 40 240 5 48
14 108 20 134 12 54 27 63 151 97 42 12 105 35 140 51 35 16 79 29 99 30 31 0
44 -8 92 -59z m-43 -311 c0 -14 -41 -29 -59 -22 -9 4 -6 9 10 18 29 16 49 18
49 4z m-40 -54 c0 -2 -7 -7 -16 -10 -8 -3 -12 -2 -9 4 6 10 25 14 25 6z m-75
-233 c-24 -159 -32 -191 -71 -260 -39 -70 -44 -75 -64 -63 -11 7 -10 11 3 25
10 9 17 11 17 5 0 -6 5 -8 10 -5 6 3 10 16 10 28 0 18 -2 19 -10 7 -16 -25
-11 -1 7 33 11 22 16 54 15 102 -2 77 14 175 28 175 5 0 7 8 4 18 -5 14 -4 14
4 3 7 -10 5 -30 -10 -68 -22 -61 -17 -86 7 -30 19 46 25 47 25 5 0 -26 -3 -30
-10 -18 -8 11 -10 0 -8 -37 1 -29 -1 -56 -5 -60 -4 -3 -7 5 -7 20 0 14 -5 29
-12 33 -8 5 -9 0 -4 -17 16 -59 19 -82 8 -75 -6 4 -11 -1 -11 -11 0 -10 -3
-31 -6 -48 -7 -30 -7 -30 13 5 11 19 22 49 26 65 3 17 9 41 12 55 11 44 12
175 2 181 -11 7 7 49 26 61 18 12 18 -14 1 -129z m352 -255 c-3 -8 -6 -5 -6 6
-1 11 2 17 5 13 3 -3 4 -12 1 -19z m-17 -78 c0 -5 -4 -10 -10 -10 -5 0 -10 5
-10 10 0 6 5 10 10 10 6 0 10 -4 10 -10z m-520 -45 c0 -8 -6 -15 -14 -15 -8 0
-18 -5 -22 -12 -5 -7 -2 -9 9 -5 32 12 25 -23 -13 -57 -21 -19 -36 -36 -34
-39 2 -2 -4 -11 -14 -21 -18 -16 -21 -13 -57 46 -21 35 -45 73 -53 86 -22 35
-5 26 20 -11 15 -22 31 -33 47 -33 14 0 26 -6 29 -14 3 -13 2 -13 -8 0 -9 12
-10 10 -4 -10 6 -23 6 -24 -11 -10 -17 14 -17 14 -6 -9 l13 -23 19 31 c11 18
23 30 27 27 5 -3 9 1 9 9 0 18 -13 20 -21 3 -5 -10 -7 -10 -12 0 -3 6 -16 12
-29 12 -12 0 -29 7 -36 17 -13 15 -12 15 8 5 34 -19 77 -14 114 12 42 30 39
29 39 11z m20 -20 c-7 -9 -15 -13 -18 -10 -3 2 1 11 8 20 7 9 15 13 18 10 3
-2 -1 -11 -8 -20z"/>
<path d="M1213 1613 c9 -2 23 -2 30 0 6 3 -1 5 -18 5 -16 0 -22 -2 -12 -5z"/>
<path d="M1082 1579 c-15 -24 -15 -24 6 -26 11 -1 18 6 19 18 2 27 -11 31 -25
8z"/>
<path d="M1033 1518 c-15 -15 -21 -28 -15 -28 7 0 12 5 12 11 0 5 5 7 10 4 6
-3 15 -3 21 1 8 4 7 9 -2 15 -10 6 -8 9 9 9 12 0 22 4 22 8 0 18 -31 7 -57
-20z"/>
<path d="M1346 1084 c-4 -9 -4 -19 -1 -22 2 -3 7 3 11 12 4 9 4 19 1 22 -2 3
-7 -3 -11 -12z"/>
<path d="M1145 980 c-3 -5 -1 -18 4 -27 9 -16 10 -14 11 10 0 28 -5 34 -15 17z"/>
<path d="M1141 904 c0 -11 3 -14 6 -6 3 7 2 16 -1 19 -3 4 -6 -2 -5 -13z"/>
<path d="M920 450 c10 -6 11 -10 3 -10 -7 0 -12 -4 -10 -9 1 -5 -2 -9 -7 -9
-8 -1 -46 -56 -46 -68 0 -11 25 3 26 14 1 7 2 17 3 22 0 6 4 9 9 8 4 -2 18 8
31 21 19 19 21 25 10 32 -8 5 -18 9 -24 9 -5 0 -3 -5 5 -10z"/>
</g>
</svg>
